#N canvas 1358 -8 1920 997 12;
#X obj 519 248 *~;
#X floatatom 519 163 0 0 0 0 - - -;
#X floatatom 429 198 0 0 0 0 - - -;
#X obj 429 268 +~;
#N canvas 0 0 450 300 (subpatch) 0;
#X array fm-output 441 float 0;
#X coords 0 1.02 440 -1.02 200 130 1;
#X restore 787 120 graph;
#X msg 504 308 bang;
#X text 546 308 <-- click to graph;
#X obj 504 332 tabwrite~ fm-output;
#X floatatom 541 218 0 0 0 0 - - -;
#X text 426 155 carrier;
#X text 425 173 frequency;
#X text 504 139 frequency;
#X text 505 122 modulation;
#X text 293 88 FREQUENCY MODULATION ("FM") USING TWO OSCILLATORS;
#X obj 428 312 osc~;
#X text 312 294 "carrier";
#X text 294 312 oscillator -->;
#X text 307 229 add modulator;
#X text 306 247 to carrier;
#X text 304 266 frequency -->;
#X text 580 230 index;
#X text 582 211 modulation;
#X obj 519 188 osc~;
#X text 791 252 --- 0.01 seconds ----;
#X text 313 523 To get the FM sound \, set all three of carrier frequency
\, modulation frequency \, and modulation index in the hundreds. Note
that you get a timbral change as you sweep modulation index \, because
this changes the amplitudes of the components of the output sound but
not their frequencies.;
#X obj 427 350 output~;
#X text 749 693 updated for Pd version 0.37;
#X text 314 412 This patch shows the classical FM synthesis technique
developed by John Chowning. It's nothing but an oscillator with vibrato
controlled by another "modulation" oscillator. First \, to understand
the patch \, set carrier frequency to 400 or so \, modulation frequency
between 5 and 10 \, and try modulation index values between 0 and 400
\, say. You'll hear a sine wave with vibrato.;
#X text 315 606 The component frequencies are equal to the carrier
frequency \, plus or minus multiples of the modulator frequency. A
more complete discussion of FM occurs in part 5 of this series.;
#X obj 25 105 tgl 15 0 empty empty empty 17 7 0 10 -262144 -1 -1 1
1;
#X obj 25 206 unpack f f f;
#X floatatom 25 240 5 0 0 0 - - -;
#X floatatom 106 243 5 0 0 0 - - -;
#X floatatom 65 241 5 0 0 0 - - -;
#X obj 25 169 tripleRand 359 359 359;
#X obj 25 336 send x;
#X obj 65 308 send y;
#X obj 338 143 receive x;
#X obj 633 134 receive y;
#X obj 261 182 + 200;
#X obj 106 281 send z;
#X obj 644 232 receive z;
#X obj 25 132 metro 100;
#X text 11 695 Steps to run this patch: 1) Turn DSP on 2) Go to MIDI
Settings and select Microsoft GS Wavelenght Synth for the Output Devices
3) Click on the toggle switch for metro 4) Turn the number to around
80 in the output~ obkject 5) Click on bang to graph 6) Make sure to
have the output~.pd in the same directory as this patch when running
;
#X connect 0 0 3 1;
#X connect 1 0 22 0;
#X connect 2 0 3 0;
#X connect 3 0 14 0;
#X connect 5 0 7 0;
#X connect 8 0 0 1;
#X connect 14 0 7 0;
#X connect 14 0 25 0;
#X connect 14 0 25 1;
#X connect 22 0 0 0;
#X connect 29 0 42 0;
#X connect 30 0 31 0;
#X connect 30 1 33 0;
#X connect 30 2 32 0;
#X connect 31 0 35 0;
#X connect 32 0 40 0;
#X connect 33 0 36 0;
#X connect 34 0 30 0;
#X connect 37 0 39 0;
#X connect 38 0 1 0;
#X connect 39 0 2 0;
#X connect 41 0 8 0;
#X connect 42 0 34 0;
