#N canvas 676 364 681 312 12;
#X obj 489 188 *~;
#X floatatom 489 103 0 0 0 0 - - -;
#X floatatom 399 138 0 0 0 0 - - -;
#X obj 399 208 +~;
#X floatatom 511 158 0 0 0 0 - - -;
#X text 396 95 carrier;
#X text 395 113 frequency;
#X text 474 79 frequency;
#X text 475 62 modulation;
#X text 277 169 add modulator;
#X text 276 187 to carrier;
#X text 274 206 frequency -->;
#X text 550 170 index;
#X text 552 151 modulation;
#X obj 489 128 osc~;
#X obj 231 122 + 200;
#X obj 592 9 inlet;
#X obj 399 271 outlet~;
#X connect 0 0 3 1;
#X connect 1 0 14 0;
#X connect 2 0 3 0;
#X connect 3 0 17 0;
#X connect 4 0 0 1;
#X connect 14 0 0 0;
#X connect 15 0 2 0;
#X connect 16 0 15 0;
#X connect 16 0 1 0;
#X connect 16 0 4 0;
