#N canvas 767 221 767 548 12;
#X obj 149 24 notein;
#X obj 92 147 mtof;
#X obj 96 193 phasor~;
#X obj 211 309 hsl 128 15 0 127 0 0 empty empty empty -2 -8 0 10 -262144
-1 -1 0 1;
#X obj 187 369 *~;
#X obj 101 304 dac~;
#X floatatom 138 100 5 0 0 0 - - -;
#X floatatom 214 94 5 0 0 0 - - -;
#X floatatom 283 94 5 0 0 0 - - -;
#X obj 468 70 ctlin;
#X floatatom 412 137 5 0 0 0 - - -;
#X floatatom 474 145 5 0 0 0 - - -;
#X floatatom 553 141 5 0 0 0 - - -;
#X obj 221 137 / 127;
#X floatatom 206 196 5 0 0 0 - - -;
#X obj 107 256 *~;
#X connect 0 0 1 0;
#X connect 0 0 6 0;
#X connect 0 1 7 0;
#X connect 0 2 8 0;
#X connect 1 0 2 0;
#X connect 2 0 15 0;
#X connect 3 0 4 1;
#X connect 7 0 13 0;
#X connect 9 0 10 0;
#X connect 9 1 11 0;
#X connect 9 2 12 0;
#X connect 13 0 14 0;
#X connect 14 0 15 1;
#X connect 15 0 5 0;
#X connect 15 0 5 1;
