#N canvas 1358 -8 1920 997 12;
#X obj 24 157 mtof;
#X obj 10 207 phasor~;
#X obj 182 367 dac~;
#X floatatom 32 95 5 0 0 0 - - -;
#X floatatom 90 97 5 0 0 0 - - -;
#X obj 84 148 / 127;
#X floatatom 100 201 5 0 0 0 - - -;
#X obj 39 266 *~;
#X obj 442 445 vstplugin~;
#X obj 19 35 notein 1;
#X obj 220 159 mtof;
#X floatatom 228 97 5 0 0 0 - - -;
#X floatatom 286 99 5 0 0 0 - - -;
#X obj 280 150 / 127;
#X floatatom 296 203 5 0 0 0 - - -;
#X obj 235 268 *~;
#X obj 215 37 notein 2;
#X obj 206 209 osc~;
#X obj 418 154 mtof;
#X obj 404 204 phasor~;
#X floatatom 426 92 5 0 0 0 - - -;
#X floatatom 484 94 5 0 0 0 - - -;
#X obj 478 145 / 127;
#X floatatom 494 198 5 0 0 0 - - -;
#X obj 433 263 *~;
#X obj 413 32 notein 3;
#X obj 1018 380 mtof;
#X obj 1176 590 dac~;
#X floatatom 1026 318 5 0 0 0 - - -;
#X floatatom 1084 320 5 0 0 0 - - -;
#X obj 1078 371 / 127;
#X floatatom 1094 424 5 0 0 0 - - -;
#X obj 1033 489 *~;
#X obj 1214 382 mtof;
#X floatatom 1222 320 5 0 0 0 - - -;
#X floatatom 1280 322 5 0 0 0 - - -;
#X obj 1274 373 / 127;
#X floatatom 1290 426 5 0 0 0 - - -;
#X obj 1229 491 *~;
#X obj 1412 377 mtof;
#X floatatom 1420 315 5 0 0 0 - - -;
#X floatatom 1478 317 5 0 0 0 - - -;
#X obj 1472 368 / 127;
#X floatatom 1488 421 5 0 0 0 - - -;
#X obj 1427 486 *~;
#X obj 1151 9 tgl 15 0 empty empty empty 17 7 0 10 -262144 -1 -1 0
1;
#X obj 1372 420 pluckedStrings;
#X obj 1151 68 random 359;
#X obj 1151 36 metro 500;
#X obj 1200 432 pluckedStrings;
#X obj 1004 430 pluckedStrings;
#X connect 0 0 1 0;
#X connect 1 0 7 0;
#X connect 4 0 5 0;
#X connect 5 0 6 0;
#X connect 6 0 7 1;
#X connect 7 0 2 0;
#X connect 7 0 2 1;
#X connect 9 0 0 0;
#X connect 9 0 3 0;
#X connect 9 1 4 0;
#X connect 10 0 17 0;
#X connect 12 0 13 0;
#X connect 13 0 14 0;
#X connect 14 0 15 1;
#X connect 15 0 2 0;
#X connect 15 0 2 1;
#X connect 16 0 10 0;
#X connect 16 0 11 0;
#X connect 16 1 12 0;
#X connect 17 0 15 0;
#X connect 18 0 19 0;
#X connect 19 0 24 0;
#X connect 21 0 22 0;
#X connect 22 0 23 0;
#X connect 23 0 24 1;
#X connect 24 0 2 0;
#X connect 24 0 2 1;
#X connect 25 0 18 0;
#X connect 25 0 20 0;
#X connect 25 1 21 0;
#X connect 26 0 50 0;
#X connect 29 0 30 0;
#X connect 30 0 31 0;
#X connect 31 0 32 1;
#X connect 32 0 27 0;
#X connect 32 0 27 1;
#X connect 33 0 49 0;
#X connect 35 0 36 0;
#X connect 36 0 37 0;
#X connect 37 0 38 1;
#X connect 38 0 27 0;
#X connect 38 0 27 1;
#X connect 39 0 46 0;
#X connect 41 0 42 0;
#X connect 42 0 43 0;
#X connect 43 0 44 1;
#X connect 44 0 27 0;
#X connect 44 0 27 1;
#X connect 45 0 48 0;
#X connect 46 0 44 0;
#X connect 47 0 26 0;
#X connect 47 0 28 0;
#X connect 47 0 29 0;
#X connect 47 0 33 0;
#X connect 47 0 34 0;
#X connect 47 0 35 0;
#X connect 47 0 39 0;
#X connect 47 0 40 0;
#X connect 47 0 41 0;
#X connect 48 0 47 0;
#X connect 49 0 38 0;
#X connect 50 0 32 0;
