#N canvas 719 295 767 548 12;
#X obj 24 157 mtof;
#X obj 10 207 phasor~;
#X obj 182 367 dac~;
#X floatatom 32 95 5 0 0 0 - - -;
#X floatatom 90 97 5 0 0 0 - - -;
#X obj 84 148 / 127;
#X floatatom 100 201 5 0 0 0 - - -;
#X obj 39 266 *~;
#X obj 442 445 vstplugin~;
#X obj 19 35 notein 1;
#X obj 220 159 mtof;
#X floatatom 228 97 5 0 0 0 - - -;
#X floatatom 286 99 5 0 0 0 - - -;
#X obj 280 150 / 127;
#X floatatom 296 203 5 0 0 0 - - -;
#X obj 235 268 *~;
#X obj 215 37 notein 2;
#X obj 206 209 osc~;
#X obj 418 154 mtof;
#X obj 404 204 phasor~;
#X floatatom 426 92 5 0 0 0 - - -;
#X floatatom 484 94 5 0 0 0 - - -;
#X obj 478 145 / 127;
#X floatatom 494 198 5 0 0 0 - - -;
#X obj 433 263 *~;
#X obj 413 32 notein 3;
#X connect 0 0 1 0;
#X connect 1 0 7 0;
#X connect 4 0 5 0;
#X connect 5 0 6 0;
#X connect 6 0 7 1;
#X connect 7 0 2 0;
#X connect 7 0 2 1;
#X connect 9 0 0 0;
#X connect 9 0 3 0;
#X connect 9 1 4 0;
#X connect 10 0 17 0;
#X connect 12 0 13 0;
#X connect 13 0 14 0;
#X connect 14 0 15 1;
#X connect 15 0 2 0;
#X connect 15 0 2 1;
#X connect 16 0 10 0;
#X connect 16 0 11 0;
#X connect 16 1 12 0;
#X connect 17 0 15 0;
#X connect 18 0 19 0;
#X connect 19 0 24 0;
#X connect 21 0 22 0;
#X connect 22 0 23 0;
#X connect 23 0 24 1;
#X connect 24 0 2 0;
#X connect 24 0 2 1;
#X connect 25 0 18 0;
#X connect 25 0 20 0;
#X connect 25 1 21 0;
